<mxfile host="Electron" modified="2024-10-27T16:01:34.278Z" agent="Mozilla/5.0 (Windows NT 10.0; Win64; x64) AppleWebKit/537.36 (KHTML, like Gecko) draw.io/24.1.0 Chrome/120.0.6099.109 Electron/28.1.0 Safari/537.36" etag="DgxSC1A-GuXNH6eF9Dr3" version="24.1.0" type="device">
  <diagram name="第 1 页" id="SWmVfD4MCEsNEilrc37e">
    <mxGraphModel dx="867" dy="463" grid="1" gridSize="10" guides="1" tooltips="1" connect="1" arrows="1" fold="1" page="1" pageScale="1" pageWidth="1169" pageHeight="827" math="0" shadow="0">
      <root>
        <mxCell id="0" />
        <mxCell id="1" parent="0" />
        <mxCell id="J88svsseJ2Ofgt5EoGSg-1" style="edgeStyle=orthogonalEdgeStyle;rounded=0;orthogonalLoop=1;jettySize=auto;html=1;exitX=0.5;exitY=1;exitDx=0;exitDy=0;entryX=0.5;entryY=0;entryDx=0;entryDy=0;" edge="1" parent="1" source="J88svsseJ2Ofgt5EoGSg-2" target="J88svsseJ2Ofgt5EoGSg-4">
          <mxGeometry relative="1" as="geometry" />
        </mxCell>
        <mxCell id="J88svsseJ2Ofgt5EoGSg-2" value="" style="ellipse;whiteSpace=wrap;html=1;aspect=fixed;fillColor=#000000;" vertex="1" parent="1">
          <mxGeometry x="305" y="65" width="30" height="30" as="geometry" />
        </mxCell>
        <mxCell id="J88svsseJ2Ofgt5EoGSg-3" style="edgeStyle=orthogonalEdgeStyle;rounded=0;orthogonalLoop=1;jettySize=auto;html=1;exitX=0.5;exitY=1;exitDx=0;exitDy=0;entryX=0.5;entryY=0;entryDx=0;entryDy=0;" edge="1" parent="1" source="J88svsseJ2Ofgt5EoGSg-4">
          <mxGeometry relative="1" as="geometry">
            <mxPoint x="320" y="230" as="targetPoint" />
          </mxGeometry>
        </mxCell>
        <mxCell id="J88svsseJ2Ofgt5EoGSg-4" value="连接FPGA&lt;div&gt;网络服务器&lt;/div&gt;" style="rounded=0;whiteSpace=wrap;html=1;" vertex="1" parent="1">
          <mxGeometry x="260" y="130" width="120" height="60" as="geometry" />
        </mxCell>
        <mxCell id="J88svsseJ2Ofgt5EoGSg-12" style="edgeStyle=orthogonalEdgeStyle;rounded=0;orthogonalLoop=1;jettySize=auto;html=1;exitX=0.5;exitY=1;exitDx=0;exitDy=0;entryX=0.5;entryY=0;entryDx=0;entryDy=0;" edge="1" parent="1" source="J88svsseJ2Ofgt5EoGSg-10" target="J88svsseJ2Ofgt5EoGSg-11">
          <mxGeometry relative="1" as="geometry" />
        </mxCell>
        <mxCell id="J88svsseJ2Ofgt5EoGSg-10" value="上传IP参数" style="rounded=0;whiteSpace=wrap;html=1;" vertex="1" parent="1">
          <mxGeometry x="260" y="230" width="120" height="60" as="geometry" />
        </mxCell>
        <mxCell id="J88svsseJ2Ofgt5EoGSg-11" value="上传图像" style="rounded=0;whiteSpace=wrap;html=1;" vertex="1" parent="1">
          <mxGeometry x="420" y="130" width="120" height="60" as="geometry" />
        </mxCell>
        <mxCell id="J88svsseJ2Ofgt5EoGSg-15" style="edgeStyle=orthogonalEdgeStyle;rounded=0;orthogonalLoop=1;jettySize=auto;html=1;exitX=0.5;exitY=1;exitDx=0;exitDy=0;entryX=0.5;entryY=0;entryDx=0;entryDy=0;" edge="1" parent="1" target="J88svsseJ2Ofgt5EoGSg-16" source="J88svsseJ2Ofgt5EoGSg-11">
          <mxGeometry relative="1" as="geometry">
            <mxPoint x="320" y="390" as="sourcePoint" />
          </mxGeometry>
        </mxCell>
        <mxCell id="J88svsseJ2Ofgt5EoGSg-18" style="edgeStyle=orthogonalEdgeStyle;rounded=0;orthogonalLoop=1;jettySize=auto;html=1;exitX=0.5;exitY=1;exitDx=0;exitDy=0;entryX=0.5;entryY=0;entryDx=0;entryDy=0;" edge="1" parent="1" source="J88svsseJ2Ofgt5EoGSg-16" target="J88svsseJ2Ofgt5EoGSg-17">
          <mxGeometry relative="1" as="geometry" />
        </mxCell>
        <mxCell id="J88svsseJ2Ofgt5EoGSg-16" value="启动IP" style="rounded=0;whiteSpace=wrap;html=1;" vertex="1" parent="1">
          <mxGeometry x="420" y="230" width="120" height="60" as="geometry" />
        </mxCell>
        <mxCell id="J88svsseJ2Ofgt5EoGSg-20" style="edgeStyle=orthogonalEdgeStyle;rounded=0;orthogonalLoop=1;jettySize=auto;html=1;exitX=0.5;exitY=1;exitDx=0;exitDy=0;entryX=0.5;entryY=0;entryDx=0;entryDy=0;" edge="1" parent="1" source="J88svsseJ2Ofgt5EoGSg-17" target="J88svsseJ2Ofgt5EoGSg-19">
          <mxGeometry relative="1" as="geometry" />
        </mxCell>
        <mxCell id="J88svsseJ2Ofgt5EoGSg-17" value="等待图像处理完成" style="rounded=0;whiteSpace=wrap;html=1;" vertex="1" parent="1">
          <mxGeometry x="580" y="130" width="120" height="60" as="geometry" />
        </mxCell>
        <mxCell id="J88svsseJ2Ofgt5EoGSg-19" value="下载图像" style="rounded=0;whiteSpace=wrap;html=1;" vertex="1" parent="1">
          <mxGeometry x="580" y="230" width="120" height="60" as="geometry" />
        </mxCell>
        <mxCell id="J88svsseJ2Ofgt5EoGSg-22" style="edgeStyle=orthogonalEdgeStyle;rounded=0;orthogonalLoop=1;jettySize=auto;html=1;exitX=0.5;exitY=1;exitDx=0;exitDy=0;entryX=0.5;entryY=0;entryDx=0;entryDy=0;" edge="1" parent="1" target="J88svsseJ2Ofgt5EoGSg-24" source="J88svsseJ2Ofgt5EoGSg-19">
          <mxGeometry relative="1" as="geometry">
            <mxPoint x="640" y="290" as="sourcePoint" />
          </mxGeometry>
        </mxCell>
        <mxCell id="J88svsseJ2Ofgt5EoGSg-23" value="Y" style="edgeLabel;html=1;align=center;verticalAlign=middle;resizable=0;points=[];" vertex="1" connectable="0" parent="J88svsseJ2Ofgt5EoGSg-22">
          <mxGeometry x="-0.445" relative="1" as="geometry">
            <mxPoint as="offset" />
          </mxGeometry>
        </mxCell>
        <mxCell id="J88svsseJ2Ofgt5EoGSg-24" value="" style="ellipse;whiteSpace=wrap;html=1;" vertex="1" parent="1">
          <mxGeometry x="625" y="325" width="30" height="30" as="geometry" />
        </mxCell>
        <mxCell id="J88svsseJ2Ofgt5EoGSg-25" value="" style="ellipse;whiteSpace=wrap;html=1;aspect=fixed;fillColor=#000000;" vertex="1" parent="1">
          <mxGeometry x="635" y="335" width="10" height="10" as="geometry" />
        </mxCell>
      </root>
    </mxGraphModel>
  </diagram>
</mxfile>
